<svg width="1781" height="1845" viewBox="0 0 1781 1845" fill="none" xmlns="http://www.w3.org/2000/svg">
<path d="M585.475 241.444C585.324 240.986 584.676 240.986 584.525 241.444L582.026 249.042C581.874 249.505 581.615 249.926 581.27 250.27C580.926 250.615 580.505 250.874 580.042 251.026L572.444 253.525C571.986 253.676 571.986 254.324 572.444 254.475L580.042 256.974C580.505 257.126 580.926 257.385 581.27 257.73C581.615 258.074 581.874 258.495 582.026 258.958L584.525 266.556C584.676 267.014 585.324 267.014 585.475 266.556L587.974 258.958C588.126 258.495 588.385 258.074 588.73 257.73C589.074 257.385 589.495 257.126 589.958 256.974L597.556 254.475C598.014 254.324 598.014 253.676 597.556 253.525L589.958 251.026C589.495 250.874 589.074 250.615 588.73 250.27C588.385 249.926 588.126 249.505 587.974 249.042L585.475 241.444Z" fill="url(#paint0_linear_1503_5283)"/>
<path d="M1309 340L1307.3 345.167C1307.21 345.432 1307.07 345.672 1306.87 345.869C1306.67 346.066 1306.43 346.213 1306.17 346.3L1301 348L1306.17 349.7C1306.43 349.787 1306.67 349.934 1306.87 350.131C1307.07 350.328 1307.21 350.568 1307.3 350.833L1309 356L1310.7 350.833C1310.79 350.568 1310.93 350.328 1311.13 350.131C1311.33 349.934 1311.57 349.787 1311.83 349.7L1317 348L1311.83 346.3C1311.57 346.213 1311.33 346.066 1311.13 345.869C1310.93 345.672 1310.79 345.432 1310.7 345.167L1309 340Z" fill="url(#paint1_linear_1503_5283)"/>
<mask id="mask0_1503_5283" style="mask-type:alpha" maskUnits="userSpaceOnUse" x="-25" y="4" width="1806" height="1841">
<path d="M1773.08 597.139L616.071 6.08703C609.49 2.72526 601.437 5.34861 598.084 11.9465L-22.9285 1233.9C-26.2816 1240.5 -23.665 1248.57 -17.0841 1251.93L1139.93 1842.99C1146.51 1846.35 1154.56 1843.72 1157.92 1837.13L1778.93 615.172C1782.28 608.575 1779.67 600.501 1773.08 597.139Z" fill="url(#paint2_radial_1503_5283)" fill-opacity="0.5"/>
</mask>
<g mask="url(#mask0_1503_5283)">
<path d="M2342.99 2133.27C2525.83 1925.37 2656.07 1665.87 2720.43 1382.67C2783.05 1107.82 2776.32 825.442 2702.02 586.879C2640.69 388.614 2525.72 195.879 2349.99 -1.88842C2193.43 -177.954 2004.89 -341.871 1822.24 -500.344C1784.59 -533.181 1745.34 -566.992 1707.39 -600.593C1667.33 -635.657 1626.97 -671.485 1587.95 -706.077C1222.63 -1030 877.603 -1336.14 443.688 -1424.5C203.86 -1473.43 -60.8701 -1455.99 -301.163 -1375.73C-551.372 -1292.22 -748.31 -1146.54 -855.721 -966.24C-930.309 -841.014 -971.271 -687.178 -984.94 -482.773C-996.929 -300.659 -985.774 -100.618 -973.879 111.534C-964.486 280.642 -954.602 455.671 -955.911 634.254C-957.121 796.04 -967.453 961.809 -977.498 1121.89C-1006.71 1586.58 -1034.38 2025.37 -841.738 2323.21C-807.654 2376.09 -765.46 2425.54 -716.205 2471.08C-675.253 2508.95 -628.987 2544.28 -577.931 2577.1C-472.934 2643.89 -347.031 2698.74 -203.879 2740.22C62.5912 2817.27 380.482 2846.51 715.909 2824.92C1041.58 2804.24 1357.02 2734.36 1628.06 2623.92C1921.89 2503.76 2162.62 2338.48 2342.99 2133.27ZM1624.94 2617.07C1354.67 2727.23 1039.99 2796.81 715.351 2817.45C380.708 2839.27 63.5968 2810.25 -201.845 2733.16C-344.213 2691.9 -469.337 2637.29 -573.798 2570.99C-685.138 2500.31 -773.079 2415.51 -835.439 2319.6C-1026.73 2023.51 -999.012 1585.75 -970.006 1122.36C-959.713 962.014 -949.386 796.243 -948.442 634.21C-947.132 455.627 -957.016 280.598 -966.425 110.974C-978.304 -100.662 -989.702 -300.432 -977.448 -482.303C-963.983 -685.405 -923.225 -837.94 -849.384 -962.362C-742.956 -1141.58 -547.251 -1285.93 -298.831 -1369.1C-59.8147 -1449.06 203.368 -1466.43 442.169 -1417.46C874.272 -1329.29 1218.49 -1023.89 1583.02 -700.71C1622.03 -666.117 1662.39 -630.289 1702.46 -595.226C1740.65 -561.891 1779.65 -527.819 1817.31 -494.976C1908.64 -415.483 2001.56 -335.019 2091.23 -252.097C2180.37 -169.674 2266.49 -85.0593 2344.52 2.98385C2519.45 200.008 2634.13 391.98 2695.15 588.966C2768.86 826.002 2775.56 1107.35 2713.39 1380.63C2649.24 1662.53 2519.46 1920.98 2337.61 2127.8C2157.76 2332.99 1918.02 2497.2 1624.94 2617.07Z" fill="url(#paint3_radial_1503_5283)"/>
<path d="M2604.2 1388.93C2662.63 1131.55 2656.62 867.233 2586.82 644.249C2529.61 458.735 2421.59 278.379 2257.18 93.0711C2110.61 -71.7722 1934.09 -225.071 1763.45 -373.435C1728.2 -404.044 1691.61 -435.89 1655.82 -466.998C1618.17 -499.835 1580.73 -533.458 1544.12 -565.818C1202.31 -868.993 879.73 -1155.37 473.357 -1238.13C248.595 -1284.05 1.34149 -1267.84 -223.68 -1192.33C-457.856 -1113.86 -642.286 -977.468 -742.685 -808.565C-812.19 -691.554 -850.727 -547.893 -863.125 -356.717C-874.296 -186.263 -863.909 1.14939 -852.572 199.373C-843.621 357.647 -834.439 521.595 -835.71 688.292C-836.826 839.738 -846.561 994.634 -855.97 1144.87C-883.297 1579.51 -909.275 1990.07 -728.718 2269.28C-696.569 2318.88 -657.341 2365.09 -611.302 2407.67C-572.759 2443.31 -529.687 2476.19 -481.818 2506.54C-383.7 2568.97 -265.924 2620.26 -131.893 2659.27C117.366 2731.34 415.085 2758.82 728.655 2738.36C1033.5 2718.78 1328.53 2653.87 1582.31 2550.32C1857.64 2437.89 2082.84 2283.57 2251.87 2091.22C2422.1 1896.5 2544.26 1653.86 2604.2 1388.93ZM1578.95 2543.74C1325.93 2647 1031.66 2711.63 727.849 2731.16C414.798 2751.59 118.106 2724.08 -130.374 2652.24C-263.62 2613.45 -380.86 2562.65 -478.464 2500.2C-582.66 2434.15 -664.717 2354.8 -723.227 2264.93C-902.159 1987.72 -876.379 1578.46 -849.014 1144.84C-839.605 994.612 -829.864 839.715 -828.505 688C-827.251 520.787 -836.433 356.839 -845.389 198.565C-856.456 0.589359 -867.092 -186.551 -855.649 -356.761C-843.439 -546.121 -805.129 -689 -736.116 -805.474C-636.44 -973.053 -453.762 -1108.08 -221.105 -1185.98C2.39657 -1260.91 248.888 -1276.83 472.081 -1231.36C876.377 -1149.04 1198.42 -863.149 1539.43 -560.722C1576.04 -528.356 1613.72 -495.005 1651.13 -461.896C1686.67 -430.522 1723.51 -398.948 1758.75 -368.338C1844.2 -294.29 1931.26 -218.751 2015.04 -141.278C2098.55 -64.0499 2179.06 15.3669 2251.93 97.159C2415.78 281.455 2523 461.069 2580.18 645.551C2649.15 867.277 2655.37 1130.3 2597.14 1386.37C2537.16 1650.27 2415.47 1891.86 2245.72 2085.53C2077.71 2277.84 1853.26 2431.36 1578.95 2543.74Z" fill="url(#paint4_radial_1503_5283)"/>
<path d="M2488.22 1394.92C2542.73 1155.27 2536.93 909.027 2472.38 701.332C2353.26 316.024 2023.75 30.1825 1705.43 -246.297C1672.59 -274.675 1638.41 -304.299 1605.28 -333.441C1570.55 -364.073 1535.28 -395.198 1501.08 -425.332C1182.78 -707.756 882.128 -974.355 503.81 -1051.53C294.386 -1094.2 64.0885 -1079.19 -145.435 -1009.22C-363.6 -936.306 -535.521 -809.208 -628.904 -651.699C-693.823 -542.365 -729.663 -408.631 -741.553 -230.394C-751.907 -71.5952 -742.31 102.671 -732.028 287.502C-723.757 435.211 -715.299 587.561 -716.514 742.888C-717.531 883.996 -726.652 1028.53 -735.47 1167.89C-761.161 1572.76 -784.93 1955.06 -616.998 2215.15C-587.053 2261.22 -550.522 2304.44 -507.692 2344.05C-471.824 2377.21 -431.679 2407.88 -386.982 2436.3C-295.466 2494.6 -185.828 2542.35 -60.9363 2578.37C171.384 2645.7 448.395 2670.91 740.644 2652.1C1024.41 2633.89 1299.51 2573.41 1535.54 2476.77C1791.85 2372.09 2001.76 2228.47 2158.95 2049C2318.39 1868.14 2431.93 1641.87 2488.22 1394.92ZM1533.21 2470.15C1297.68 2566.24 1023.6 2626.69 740.6 2644.61C449.135 2663.65 172.886 2638.15 -58.6545 2571.05C-182.762 2535.25 -291.892 2487.48 -382.866 2429.67C-479.669 2367.97 -556.599 2294.35 -610.473 2210.76C-777.029 1952.94 -752.973 1571.39 -727.481 1167.82C-718.685 1027.95 -709.812 883.684 -708.547 742.307C-707.602 586.733 -715.812 434.113 -724.083 286.405C-745.592 -87.611 -763.769 -410.863 -622.584 -648.336C-529.919 -804.521 -359.484 -930.013 -143.104 -1002.59C65.1437 -1072.26 294.408 -1087.23 502.534 -1044.76C878.774 -968.018 1178.65 -701.646 1496.14 -419.964C1530.34 -389.831 1565.36 -358.44 1600.35 -328.073C1633.47 -298.931 1667.65 -269.307 1700.49 -240.93C1780.07 -171.809 1860.99 -101.451 1939.15 -29.1746C2017.04 42.8552 2091.91 116.558 2159.68 193.131C2312.2 364.968 2411.95 531.708 2465.26 703.687C2529.5 910.103 2535.26 1155.32 2481.2 1393.39C2425.37 1638.77 2312.3 1864 2153.86 2044.3C1997.15 2222.71 1788.25 2365.78 1533.21 2470.15Z" fill="url(#paint5_radial_1503_5283)"/>
<path d="M2371.99 1401.18C2422.58 1179.26 2416.99 951.091 2357.19 758.705C2246.95 401.975 1941.97 136.842 1646.64 -119.38C1616.18 -146.051 1584.68 -173.195 1553.96 -200.111C1521.64 -228.516 1489.04 -257.165 1457.5 -285.343C1162.71 -547.012 884.239 -794.102 533.728 -865.425C339.884 -905.114 126.305 -891.039 -67.7043 -826.08C-269.841 -758.213 -428.999 -640.67 -515.637 -494.805C-647.424 -273.473 -630.407 27.3489 -611.235 375.365C-603.666 511.992 -595.666 652.994 -596.826 796.95C-597.743 927.721 -606.274 1061.38 -614.208 1190.62C-637.75 1565.69 -660.065 1920.04 -504.515 2160.74C-477.039 2203.03 -443.491 2242.49 -403.877 2279.13C-302.162 2373.18 -161.557 2447.59 10.5349 2497.46C225.65 2559.8 482.49 2583.24 753.142 2565.82C1016.1 2549.23 1270.75 2492.67 1489.55 2403.46C1727.1 2306.25 1921.45 2173.07 2067.07 2007.24C2214.93 1839.52 2320.13 1629.86 2371.99 1401.18ZM1486.95 2396.58C1268.91 2485.51 1015.28 2541.51 752.833 2558.08C482.959 2575.73 227.147 2552.24 12.8167 2490.13C-224.713 2421.46 -401.253 2305.89 -498.238 2156.61C-652.435 1917.66 -630.319 1564.62 -606.981 1190.85C-598.799 1061.34 -590.268 927.676 -589.351 796.906C-588.461 652.702 -596.219 511.432 -603.782 374.805C-623.164 28.089 -640.137 -271.7 -509.316 -491.442C-423.403 -635.989 -265.742 -752.435 -65.3729 -819.46C127.355 -884.103 339.664 -897.869 532.452 -858.656C881.15 -787.515 1158.83 -541.174 1452.81 -280.242C1484.35 -252.069 1516.95 -223.414 1549.27 -195.015C1579.99 -168.096 1611.76 -140.704 1641.95 -114.282C1715.39 -50.3392 1789.61 13.8298 1861.08 79.9187C2076.02 278.681 2267.91 493.879 2350.29 760.276C2409.79 951.384 2415.06 1178.27 2364.95 1399.13C2313.29 1626.52 2208.3 1834.88 2061.96 2002.03C1917.1 2167.56 1723.49 2299.94 1486.95 2396.58Z" fill="url(#paint6_radial_1503_5283)"/>
<path d="M2256.03 1407.68C2302.42 1203.24 2297.57 993.128 2242.25 816.324C2140.88 487.655 1859.95 243.767 1588.38 8.02661C1560.33 -16.4159 1531.49 -41.6006 1503.18 -66.2908C1473.26 -92.466 1443.32 -119.157 1414.45 -144.858C1143.18 -385.776 886.902 -612.835 564.182 -678.824C385.676 -715.262 189.053 -702.388 10.5626 -642.454C-175.563 -580.143 -322.213 -471.894 -401.839 -337.418C-523.234 -133.302 -507.708 143.294 -489.658 463.452C-482.525 589.246 -475.233 719.166 -476.332 851.752C-477.42 971.935 -485.089 1094.97 -492.409 1213.86C-514.322 1559.15 -534.692 1884.99 -391.496 2106.81C-366.224 2145.58 -335.379 2182.05 -298.974 2215.71C-205.287 2302.35 -76.0028 2370.75 82.7906 2416.76C280.695 2474.11 517.364 2495.79 766.159 2479.51C1008.29 2464.03 1242.52 2412.42 1444.07 2330.11C1662.87 2240.9 1841.67 2118.17 1975.71 1965.47C2111.2 1810.65 2208.32 1617.86 2256.03 1407.68ZM1440.96 2323.26C1240.17 2405.28 1006.7 2456.59 765.601 2472.04C517.319 2488.3 281.679 2466.58 84.5586 2409.45C-133.954 2345.96 -296.455 2239.9 -385.485 2102.44C-527.571 1882.64 -507.156 1557.82 -485.454 1213.83C-477.884 1094.68 -470.216 971.647 -469.398 851.213C-468.299 718.627 -475.862 588.459 -482.989 462.665C-501.001 143.539 -516.239 -132.294 -396.032 -334.039C-317.107 -466.671 -171.961 -573.828 12.3746 -635.812C189.859 -695.187 384.935 -708 562.144 -671.767C882.786 -606.21 1138.53 -379.649 1409 -139.469C1437.87 -113.769 1467.81 -87.0774 1497.72 -60.9022C1526.03 -36.2126 1555.15 -10.7802 1583.19 13.6623C1651.01 72.4066 1718.86 131.667 1784.7 192.558C1982.51 375.479 2159.02 573.472 2234.62 818.699C2289.37 994.496 2294.44 1203.31 2248.25 1406.44C2200.76 1615.83 2104.12 1807.58 1969.34 1961.08C1836.54 2112.43 1658.49 2234.36 1440.96 2323.26Z" fill="url(#paint7_radial_1503_5283)"/>
<path d="M2140.04 1413.67C2182.52 1226.96 2178.14 1035.17 2127.55 873.157C2034.79 572.818 1778.43 350.156 1530.09 134.918C1504.46 112.703 1478.02 89.7459 1452.1 66.768C1424.86 43.0683 1397.33 18.6047 1370.87 -4.86841C1122.87 -224.772 889.007 -432.583 594.1 -492.722C430.925 -525.902 251.264 -514.237 88.0226 -459.57C-82.0916 -402.815 -215.962 -303.607 -288.836 -180.775C-399.872 5.61021 -385.568 258.228 -369.131 551.065C-362.705 665.778 -356.114 784.617 -356.915 905.564C-357.898 1015.41 -364.711 1127.81 -371.661 1236.61C-391.424 1552.1 -410.347 1849.98 -279.256 2052.66C-256.173 2088.41 -227.774 2121.62 -194.58 2152.32C-108.926 2231.53 9.30274 2294.17 154.262 2335.84C334.956 2388.21 550.939 2408.14 778.662 2393.23C999.713 2379.11 1214.02 2331.93 1398.08 2256.79C1597.87 2175.32 1761.37 2063.29 1883.83 1923.72C2007.49 1782.29 2096.26 1606.11 2140.04 1413.67ZM1394.97 2249.94C1211.67 2324.8 998.393 2371.93 778.104 2385.76C551.408 2400.62 336.21 2380.92 156.03 2328.53C-43.4387 2270.73 -191.917 2173.65 -273.25 2048.28C-402.955 1847.88 -383.993 1551.02 -364.44 1236.83C-357.484 1128.04 -350.672 1015.63 -349.44 905.519C-348.396 784.304 -354.987 665.465 -361.683 550.505C-377.811 258.947 -392.071 7.36116 -282.251 -177.167C-210.343 -298.411 -77.7046 -396.278 90.6194 -452.701C252.584 -507.058 430.969 -518.413 592.846 -485.438C885.675 -425.73 1119.25 -218.679 1366.2 0.746168C1392.66 24.2199 1420.19 48.6829 1447.43 72.3826C1473.08 95.1135 1499.79 118.318 1525.42 140.533C1587.11 194.1 1649.6 248.41 1709.56 303.855C1890.24 470.934 2051.37 651.723 2120.43 875.513C2170.44 1036 2174.78 1226.76 2132.78 1412.41C2089.2 1603.56 2001.42 1778.67 1877.96 1918.79C1756.25 2057.56 1593.48 2168.78 1394.97 2249.94Z" fill="url(#paint8_radial_1503_5283)"/>
<path d="M2023.82 1419.93C2062.37 1250.94 2058.2 1077.23 2012.35 930.529C1928.47 658.769 1696.14 456.835 1471.3 261.832C1448.07 241.845 1424.29 220.847 1400.53 200.365C1375.95 178.625 1351.09 156.637 1327.04 135.391C1102.55 -63.7599 890.626 -251.792 623.769 -306.354C476.18 -336.548 313.232 -325.813 165.754 -276.436C11.6731 -224.722 -109.711 -135.323 -175.574 -23.8839C-275.968 145.019 -263.139 373.927 -248.338 638.927C-242.349 742.806 -236.73 850.316 -237.47 959.893C-238.111 1059.13 -244.576 1160.93 -250.918 1259.37C-268.797 1544.81 -285.753 1814.71 -167.287 1998.26C-146.408 2030.49 -120.706 2060.71 -90.727 2088.43C-13.101 2160.21 93.8074 2216.86 224.954 2254.69C388.709 2302.32 584.249 2320.23 790.38 2306.72C990.602 2293.7 1184.47 2250.97 1351.04 2182.99C1531.81 2109.27 1679.76 2007.69 1790.9 1881.5C1904.03 1753.67 1984.18 1593.86 2023.82 1419.93ZM1348.98 2176.62C1183.17 2244.31 990.064 2286.75 790.601 2299.48C585.232 2312.7 390.471 2295.01 227.772 2247.86C47.3424 2195.75 -86.8484 2107.91 -160.745 1994.38C-278.096 1812.85 -261.079 1544.49 -243.155 1260.09C-236.813 1161.65 -230.619 1059.6 -229.73 960.097C-228.995 850.52 -234.879 742.761 -240.868 638.883C-255.626 374.915 -268.416 147.038 -168.966 -19.7594C-103.799 -129.361 16.0599 -218.186 168.373 -269.047C315.083 -318.136 476.241 -328.539 622.786 -298.82C887.808 -244.962 1099.2 -57.4236 1322.64 141.253C1346.69 162.499 1371.54 184.487 1396.13 206.227C1419.37 226.73 1443.67 247.707 1466.89 267.694C1522.71 316.332 1579.31 365.196 1633.65 415.443C1797.2 566.681 1942.95 730.266 2005.74 932.867C2051.02 1078.04 2055.14 1250.72 2016.8 1418.4C1977.64 1591.28 1897.69 1749.8 1786.33 1876.77C1675.93 2002.16 1528.72 2102.94 1348.98 2176.62Z" fill="url(#paint9_radial_1503_5283)"/>
<path d="M1907.59 1426.18C1941.95 1274.68 1938.51 1119.02 1897.4 987.633C1822.13 744.201 1614.36 563.492 1413.02 388.723C1391.91 370.201 1370.83 352.194 1349.72 333.671C1327.82 314.406 1305.64 294.893 1284.25 275.607C1083.27 97.2065 893.267 -71.045 654.466 -120.023C522.214 -146.963 376.222 -137.434 243.998 -93.3239C105.929 -47.1691 -2.6753 33.1883 -61.7926 132.986C-151.822 284.158 -140.214 489.088 -126.788 726.499C-121.75 819.564 -116.07 915.705 -117.02 1013.66C-117.562 1102.56 -123.435 1193.49 -128.893 1281.81C-145.137 1537.48 -160.397 1779.15 -54.0466 1943.55C-35.3666 1972.25 -12.3606 1999.48 14.6731 2024.48C84.0005 2088.59 179.853 2139.48 297.701 2173.46C444.494 2215.83 619.349 2232 804.154 2220.13C983.57 2208.73 1157.01 2170.44 1306.33 2109.36C1468.33 2043.12 1600.99 1952.23 1700.28 1838.92C1800.06 1725.07 1872.13 1582.12 1907.59 1426.18ZM1302.73 2103.05C1154.41 2163.57 981.489 2201.84 802.834 2212.94C619.056 2224.78 444.986 2208.83 298.972 2166.69C137.322 2120.02 17.4135 2041.42 -48.5271 1939.71C-153.253 1777.31 -138.203 1536.93 -122.429 1282.32C-116.971 1194 -111.098 1103.08 -110.578 1013.66C-109.899 915.454 -115.324 819.046 -120.363 725.98C-133.485 489.85 -145.048 285.951 -56.2344 136.636C1.91599 38.4279 109.283 -40.5874 245.568 -86.4114C376.764 -130.48 521.209 -139.946 652.167 -113.213C889.399 -64.6876 1078.35 103.09 1278.77 280.479C1300.68 299.744 1322.34 319.278 1344.52 338.791C1365.62 357.314 1386.46 375.589 1407.81 393.843C1458.01 437.283 1508.23 481.238 1556.94 526.287C1703.36 661.683 1833.99 808.311 1889.99 989.223C1930.52 1119.09 1933.92 1273.71 1900.02 1423.64C1864.76 1578.28 1793.68 1720.17 1693.63 1833.76C1595.37 1947.03 1463.72 2037.36 1302.73 2103.05Z" fill="url(#paint10_radial_1503_5283)"/>
<path d="M1791.36 1432.44C1821.79 1298.67 1818.57 1161.09 1782.46 1045.25C1716.06 829.882 1532.34 670.418 1354.51 516.4C1335.81 500.106 1317.39 484.058 1298.69 467.763C1279.19 450.726 1259.94 433.42 1240.71 416.63C1063.25 258.979 895.416 110.24 684.179 67.3805C567.265 43.6952 438.478 51.7526 321.525 91.1101C199.732 131.955 103.636 203.021 50.9998 290.93C-28.3941 424.62 -18.5265 605.592 -6.46549 815.413C-1.86318 897.645 2.84419 982.46 2.46296 1069.03C2.02097 1147.58 -3.23889 1228.15 -8.10639 1305.6C-22.2006 1531.46 -35.7589 1744.9 57.9669 1890.18C74.4645 1915.87 94.7467 1939.59 118.57 1961.62C179.865 2018.31 264.911 2063.18 368.432 2093.35C498.015 2130.73 652.703 2145.13 815.652 2134.4C973.988 2124.37 1127.5 2090.51 1259.33 2036.6C1402.32 1978.1 1519.69 1897.9 1607.4 1797.73C1696.6 1696.45 1760.32 1570.11 1791.36 1432.44ZM1256.98 2029.46C1125.91 2083.08 973.409 2116.38 815.851 2126.64C653.665 2137.08 499.761 2122.91 370.963 2085.75C228.595 2044.5 122.466 1975.16 64.2212 1885.54C-28.394 1742.28 -15.0347 1530.14 -0.901797 1305.3C3.94361 1227.34 9.20344 1146.78 9.64544 1068.22C10.2698 981.379 5.56803 896.57 0.694998 814.09C-11.0566 605.549 -20.8801 425.608 57.3039 293.775C108.703 207.208 203.296 137.237 323.564 96.9701C439.511 58.1698 567 49.9069 682.621 73.3862C892.046 116.061 1058.82 264.326 1235.73 420.965C1254.98 438.271 1274.21 455.061 1293.71 472.098C1312.41 488.394 1330.83 504.441 1349.53 520.736C1393.86 559.246 1438.19 597.755 1481.28 637.607C1610.57 757.162 1725.82 886.586 1775.03 1046.33C1810.58 1161.16 1814.01 1297.43 1783.79 1429.9C1752.7 1566.55 1689.7 1691.56 1601.75 1792.01C1515.32 1891.88 1398.96 1971.52 1256.98 2029.46Z" fill="url(#paint11_radial_1503_5283)"/>
<path d="M1675.38 1438.43C1701.89 1322.38 1698.88 1202.88 1667.76 1102.09C1610.24 915.295 1450.81 776.808 1296.47 643.025C1280.19 628.958 1264.17 615.138 1248.13 600.802C1231.04 585.992 1214.46 571.162 1197.89 556.331C1043.69 419.7 898.305 290.721 714.859 253.194C613.526 232.495 501.722 239.865 400.018 273.955C293.989 309.51 210.65 371.017 165.03 447.533C96.0008 563.492 104.913 720.734 114.819 902.738C118.719 973.89 122.99 1047.87 122.399 1122.82C122.057 1191.04 117.388 1260.73 113.156 1328.33C100.697 1524.42 89.3487 1709.61 170.721 1836.01C185.014 1858.17 202.6 1878.91 223.479 1898.21C276.745 1947.47 350.465 1986.34 440.688 2012.66C553.331 2045.3 687.306 2057.44 828.934 2048.35C966.442 2039.42 1099.52 2010 1214.12 1963.51C1338.36 1913 1439.91 1843.01 1516.3 1756.2C1593.14 1667.83 1648.26 1558.38 1675.38 1438.43ZM1210.99 1956.14C1097.42 2002.59 965.101 2031.72 828.354 2040.36C619.134 2054 366.509 2020.05 228.926 1892.82C208.854 1874.26 191.533 1853.77 176.975 1831.37C96.7134 1706.99 108.377 1523.07 120.626 1328.29C124.863 1260.69 129.261 1190.75 129.604 1122.53C130.173 1047.06 126.167 973.331 122.007 901.93C111.891 721.226 103.017 565.016 171.08 450.646C215.738 375.72 297.817 315.039 401.808 280.083C502.242 246.304 612.763 239.244 712.804 259.737C894.173 296.831 1039.02 425.315 1192.42 561.203C1208.99 576.034 1226.08 590.844 1242.66 605.674C1258.94 619.741 1274.71 633.83 1291 647.897C1329.19 681.229 1368.17 714.788 1405.38 749.194C1517.53 852.908 1617.4 965.127 1660.35 1103.68C1691.16 1203.19 1694.11 1321.15 1668.07 1436.14C1641.16 1554.79 1586.51 1663.19 1510.12 1749.99C1434.76 1836.76 1333.96 1905.94 1210.99 1956.14Z" fill="url(#paint12_radial_1503_5283)"/>
<path d="M1559.16 1444.69C1581.47 1346.12 1579.19 1244.68 1552.56 1159.46C1503.66 1000.99 1368.28 883.755 1237.68 769.938C1223.8 758.098 1210.17 745.99 1196.81 734.13C1182.64 721.527 1168.48 708.924 1154.06 696.589C1023.38 580.708 900.167 471.243 744.534 439.566C658.532 422.121 563.691 428.288 477.23 457.108C387.217 487.107 316.658 539.571 277.784 604.444C219.142 703.189 226.562 836.205 235.098 990.619C238.562 1050.94 241.861 1113.58 241.573 1176.9C241.059 1234.53 237.523 1293.84 233.904 1351.09C223.595 1517.37 213.429 1674.36 282.69 1781.61C295.331 1801.26 310.47 1818.73 327.868 1834.82C445.909 1943.97 662.267 1973.19 840.901 1961.57C1086.63 1945.93 1299.19 1855.42 1423.62 1713.71C1489.44 1639.48 1536.18 1546.12 1559.16 1444.69ZM840.857 1954.08C663.765 1965.64 449.754 1937.1 333.321 1829.43C316.459 1813.84 301.591 1796.61 289.21 1777.22C221.33 1672.23 231.026 1516.3 241.645 1351.29C245.264 1294.04 248.8 1234.73 249.562 1176.83C249.822 1113 246.529 1050.35 243.065 990.037C234.319 836.925 227.186 704.672 284.37 608.053C360.145 480.452 561.641 409.51 743.009 446.604C896.571 477.848 1019.24 586.818 1149.13 701.957C1163.29 714.56 1177.46 727.162 1191.87 739.497C1205.5 751.605 1219.11 763.197 1232.74 775.305C1265.31 803.439 1297.91 832.09 1329.49 861.298C1424.52 949.169 1509 1044.18 1545.42 1161.3C1571.49 1245.5 1573.98 1345.65 1551.87 1442.92C1529.1 1543.05 1483.07 1635.08 1418.27 1708.76C1295.34 1849.38 1084.79 1938.77 840.857 1954.08Z" fill="url(#paint13_radial_1503_5283)"/>
<path d="M1443.19 1451.19C1461.58 1370.35 1459.51 1286.99 1437.87 1216.81C1397.58 1086.68 1287.02 990.392 1179.42 897.345C1168.19 887.464 1156.73 877.853 1145.77 868.22C1134.02 857.845 1122.53 847.717 1110.77 837.342C1003.6 742.211 902.316 652.527 774.739 626.431C623.255 595.619 455.058 655.137 391.582 761.829C343.304 842.844 349.769 952.127 356.675 1078.7C359.448 1128.46 362.272 1179.24 361.797 1231.45C361.382 1278.75 358.437 1327.18 355.432 1374.07C346.758 1510.58 338.802 1639.3 395.438 1727.44C405.88 1743.55 418.317 1758.03 432.505 1771.16C529.668 1861.01 706.892 1884.83 853.663 1875.53C1055.43 1862.45 1229.49 1788.48 1332.01 1672.2C1385.71 1610.61 1424.13 1534.38 1443.19 1451.19ZM853.354 1867.79C708.395 1877.28 532.977 1853.64 437.688 1765.52C423.77 1752.65 411.869 1738.66 401.444 1723.06C345.923 1636.95 353.918 1509.25 362.388 1374.05C365.393 1327.16 368.587 1278.46 368.73 1230.91C369.206 1178.7 366.101 1127.16 363.587 1077.65C356.482 952.376 350.305 843.852 397.632 764.943C459.65 660.377 624.576 602.8 773.198 632.953C899.211 658.594 999.444 747.805 1105.81 842.193C1117.57 852.568 1129.06 862.696 1140.81 873.071C1152.04 882.951 1163.26 892.831 1174.46 902.196C1201.16 925.4 1227.87 948.604 1253.83 972.617C1331.46 1044.4 1400.83 1122.46 1430.46 1218.4C1451.79 1287.3 1453.8 1369.12 1435.89 1448.9C1417.29 1531.04 1379.34 1606.21 1326.37 1666.49C1225.62 1781.92 1053.33 1855.04 853.354 1867.79Z" fill="url(#paint14_radial_1503_5283)"/>
<path d="M1322.92 1273.91C1291.51 1172.36 1204.73 1097.07 1121.13 1024.24C1112.32 1016.59 1103.51 1008.93 1094.96 1001.53C1085.88 993.626 1076.54 985.478 1067.7 977.313C984.048 902.931 904.941 832.76 805.171 812.514C701.24 791.403 560.856 824.991 505.363 918.7C467.722 982.232 472.445 1067.56 477.981 1166.55C480.053 1205.22 482.44 1245.17 482.269 1285.74C481.954 1322.7 479.6 1360.25 477.473 1397.03C470.683 1503.49 464.445 1604.51 508.706 1673.25C516.944 1685.83 526.684 1697.32 537.657 1707.47C613.675 1777.77 752.556 1796.43 866.929 1788.96C1024.48 1778.7 1160.8 1720.99 1240.63 1629.92C1325.62 1532.68 1358.76 1389.5 1322.92 1273.91ZM865.857 1781.51C753.026 1788.92 616.222 1770.69 542.082 1702.12C531.375 1692.23 521.899 1680.98 513.949 1669.16C470.804 1602.44 476.838 1502.73 483.672 1397.29C486.064 1360.77 488.396 1322.7 488.711 1285.73C489.125 1244.9 486.744 1204.95 484.401 1166.03C478.91 1068.07 474.224 983.777 510.921 922.35C559.199 841.335 687.511 796.092 803.132 819.572C901.095 839.633 979.398 909.062 1062.25 982.697C1071.33 990.602 1080.43 999.016 1089.51 1006.91C1098.33 1014.57 1107.14 1022.22 1115.95 1029.88C1136.52 1047.9 1157.87 1066.16 1177.95 1084.72C1238.44 1140.66 1292.68 1201.24 1315.8 1276.27C1350.44 1387.77 1317.05 1531.22 1234.51 1625.25C1156.17 1714.72 1021.62 1771.58 865.857 1781.51Z" fill="url(#paint15_radial_1503_5283)"/>
<path d="M1207.72 1331.28C1185.18 1257.79 1122.44 1203.75 1062.34 1151.15C1055.93 1145.72 1049.78 1140.03 1043.38 1134.61C1036.7 1128.93 1030.28 1123 1023.61 1117.32C963.219 1063.96 906.289 1013.3 834.575 998.633C759.479 983.334 658.162 1007.85 617.846 1075.36C590.57 1121.16 593.829 1182.78 597.995 1254.18C599.631 1282.02 601.039 1310.64 600.929 1339.84C600.713 1366.46 598.973 1393.66 597.194 1419.82C592.304 1496.76 587.741 1569.03 620.161 1618.87C626.195 1627.93 632.968 1636.18 641.267 1643.85C696.141 1694.59 796.154 1708.11 878.399 1702.71C992.015 1695.53 1090.05 1653.58 1147.72 1588.2C1209.83 1517.99 1233.75 1414.45 1207.72 1331.28ZM878.355 1695.22C785.574 1701.3 670.942 1683.21 626.432 1614.74C595.647 1566.89 600.249 1495.66 604.935 1420.03C606.443 1393.62 608.183 1366.41 608.399 1339.8C608.758 1310.33 607.078 1281.46 605.443 1253.62C601.586 1183.5 598.128 1123.18 624.189 1079.24C658.704 1021.26 750.181 989.134 832.807 1005.94C902.958 1020.15 959.086 1070.07 1018.67 1122.69C1025.1 1128.63 1031.77 1134.3 1038.44 1139.97C1044.84 1145.4 1051 1151.09 1057.4 1156.51C1072.35 1169.35 1087.32 1182.69 1101.77 1196.06C1145.13 1236.16 1183.99 1279.54 1200.58 1333.12C1225.44 1412.73 1201.5 1515.75 1142.62 1582.99C1086.45 1647.26 990.159 1687.86 878.355 1695.22Z" fill="url(#paint16_radial_1503_5283)"/>
</g>
<defs>
<linearGradient id="paint0_linear_1503_5283" x1="571" y1="240" x2="599" y2="268" gradientUnits="userSpaceOnUse">
<stop stop-color="#646464"/>
<stop offset="1" stop-color="#1E1E1E"/>
</linearGradient>
<linearGradient id="paint1_linear_1503_5283" x1="1301" y1="340" x2="1317" y2="356" gradientUnits="userSpaceOnUse">
<stop stop-color="#646464"/>
<stop offset="1" stop-color="#1E1E1E"/>
</linearGradient>
<radialGradient id="paint2_radial_1503_5283" cx="0" cy="0" r="1" gradientUnits="userSpaceOnUse" gradientTransform="translate(629.5 401.535) rotate(-170.857) scale(384.89 530.013)">
<stop stop-color="#8FB9D0"/>
<stop offset="1" stop-color="#8FB9D0" stop-opacity="0"/>
</radialGradient>
<radialGradient id="paint3_radial_1503_5283" cx="0" cy="0" r="1" gradientUnits="userSpaceOnUse" gradientTransform="translate(290.5 1492.35) rotate(-46.7341) scale(879.797 774.397)">
<stop stop-color="white"/>
<stop offset="1" stop-color="#F5F5F5"/>
</radialGradient>
<radialGradient id="paint4_radial_1503_5283" cx="0" cy="0" r="1" gradientUnits="userSpaceOnUse" gradientTransform="translate(330.485 1491.42) rotate(-46.7381) scale(823.285 724.648)">
<stop stop-color="white"/>
<stop offset="1" stop-color="#F5F5F5"/>
</radialGradient>
<radialGradient id="paint5_radial_1503_5283" cx="0" cy="0" r="1" gradientUnits="userSpaceOnUse" gradientTransform="translate(369.867 1490.68) rotate(-46.7281) scale(766.894 675.028)">
<stop stop-color="white"/>
<stop offset="1" stop-color="#F5F5F5"/>
</radialGradient>
<radialGradient id="paint6_radial_1503_5283" cx="0" cy="0" r="1" gradientUnits="userSpaceOnUse" gradientTransform="translate(409.759 1489.78) rotate(-46.7334) scale(710.439 625.329)">
<stop stop-color="white"/>
<stop offset="1" stop-color="#F5F5F5"/>
</radialGradient>
<radialGradient id="paint7_radial_1503_5283" cx="0" cy="0" r="1" gradientUnits="userSpaceOnUse" gradientTransform="translate(449.932 1489.16) rotate(-46.7357) scale(653.923 575.58)">
<stop stop-color="white"/>
<stop offset="1" stop-color="#F5F5F5"/>
</radialGradient>
<radialGradient id="paint8_radial_1503_5283" cx="0" cy="0" r="1" gradientUnits="userSpaceOnUse" gradientTransform="translate(489.616 1488.3) rotate(-46.7321) scale(597.552 525.967)">
<stop stop-color="white"/>
<stop offset="1" stop-color="#F5F5F5"/>
</radialGradient>
<radialGradient id="paint9_radial_1503_5283" cx="0" cy="0" r="1" gradientUnits="userSpaceOnUse" gradientTransform="translate(529.13 1487.35) rotate(-46.7274) scale(541.11 476.291)">
<stop stop-color="white"/>
<stop offset="1" stop-color="#F5F5F5"/>
</radialGradient>
<radialGradient id="paint10_radial_1503_5283" cx="0" cy="0" r="1" gradientUnits="userSpaceOnUse" gradientTransform="translate(569.329 1486.26) rotate(-46.7323) scale(484.52 426.476)">
<stop stop-color="white"/>
<stop offset="1" stop-color="#F5F5F5"/>
</radialGradient>
<radialGradient id="paint11_radial_1503_5283" cx="0" cy="0" r="1" gradientUnits="userSpaceOnUse" gradientTransform="translate(608.959 1486.26) rotate(-46.7257) scale(428.041 376.768)">
<stop stop-color="white"/>
<stop offset="1" stop-color="#F5F5F5"/>
</radialGradient>
<radialGradient id="paint12_radial_1503_5283" cx="0" cy="0" r="1" gradientUnits="userSpaceOnUse" gradientTransform="translate(648.841 1485.41) rotate(-46.7338) scale(371.673 327.147)">
<stop stop-color="white"/>
<stop offset="1" stop-color="#F5F5F5"/>
</radialGradient>
<radialGradient id="paint13_radial_1503_5283" cx="0" cy="0" r="1" gradientUnits="userSpaceOnUse" gradientTransform="translate(688.343 1484.23) rotate(-46.7171) scale(315.175 277.427)">
<stop stop-color="white"/>
<stop offset="1" stop-color="#F5F5F5"/>
</radialGradient>
<radialGradient id="paint14_radial_1503_5283" cx="0" cy="0" r="1" gradientUnits="userSpaceOnUse" gradientTransform="translate(728.399 1483.69) rotate(-46.7137) scale(258.69 227.708)">
<stop stop-color="white"/>
<stop offset="1" stop-color="#F5F5F5"/>
</radialGradient>
<radialGradient id="paint15_radial_1503_5283" cx="0" cy="0" r="1" gradientUnits="userSpaceOnUse" gradientTransform="translate(768.9 1482.78) rotate(-46.719) scale(202.164 177.95)">
<stop stop-color="white"/>
<stop offset="1" stop-color="#F5F5F5"/>
</radialGradient>
<radialGradient id="paint16_radial_1503_5283" cx="0" cy="0" r="1" gradientUnits="userSpaceOnUse" gradientTransform="translate(807.68 1481.93) rotate(-46.6739) scale(145.883 128.422)">
<stop stop-color="white"/>
<stop offset="1" stop-color="#F5F5F5"/>
</radialGradient>
</defs>
</svg>
