<svg width="17" height="13" viewBox="0 0 17 13" fill="none" xmlns="http://www.w3.org/2000/svg">
<path fill-rule="evenodd" clip-rule="evenodd" d="M1.16397 5.60679C5.72643 3.77797 8.76373 2.56276 10.2889 1.97321C14.6298 0.300794 15.5422 0.0120317 16.1289 0C16.2592 0 16.546 0.0240637 16.7415 0.168445C16.898 0.288762 16.9371 0.445175 16.9631 0.565493C16.9892 0.68581 17.0153 0.938476 16.9892 1.13098C16.7546 3.41702 15.7378 8.96365 15.2164 11.5144C14.9948 12.5972 14.5646 12.9582 14.1474 12.9943C13.2349 13.0665 12.5441 12.4408 11.6707 11.9114C10.2889 11.0812 9.5198 10.5639 8.17713 9.74571C6.62589 8.80724 7.62963 8.28987 8.51605 7.44765C8.75069 7.23108 12.7526 3.86219 12.8308 3.5614C12.8439 3.5253 12.8439 3.38092 12.7526 3.30873C12.6614 3.23654 12.531 3.2606 12.4267 3.28467C12.2833 3.30873 10.0934 4.65629 5.83072 7.3153C5.20501 7.71235 4.64448 7.90486 4.13609 7.89283C3.57556 7.88079 2.50664 7.60406 1.69843 7.36343C0.720757 7.07467 -0.0613799 6.91825 0.0037982 6.41292C0.042905 6.14822 0.433973 5.88352 1.16397 5.60679Z" fill="white"/>
</svg>
