<svg width="44" height="26" viewBox="0 0 44 26" fill="none" xmlns="http://www.w3.org/2000/svg">
<path fill-rule="evenodd" clip-rule="evenodd" d="M17.4732 0.438956C16.3759 1.03512 16.1906 1.47715 13.9245 8.90204C12.1144 14.8334 11.9434 15.6199 12.2311 16.6862C12.4198 17.3858 12.8968 18.112 13.394 18.4564C14.4665 19.1993 34.6204 25.3216 35.985 25.3191C37.5244 25.3161 38.6938 24.5661 39.2206 23.2437C40.2226 20.7293 43.1622 10.5623 43.1622 9.61157C43.1622 8.08934 42.407 6.91956 41.0827 6.39042C38.3 5.27871 20.2847 -0.0111027 19.3198 1.75067e-05C18.736 0.00681318 17.9051 0.204505 17.4732 0.438956ZM29.7285 5.55486C35.3264 7.2578 40.1001 8.84489 40.3374 9.08151C40.7062 9.44971 40.4905 10.4227 38.8509 15.7929C37.7966 19.2472 36.7429 22.2682 36.51 22.5064C36.1474 22.8764 34.5551 22.4739 25.5098 19.7263C19.5246 17.9082 14.8637 16.3343 14.7737 16.1005C14.585 15.6118 17.9781 4.16237 18.6104 3.15383C18.8501 2.77142 19.1598 2.45882 19.2987 2.45882C19.4373 2.45882 24.1309 3.85193 29.7285 5.55486ZM5.40348 4.54385C5.2324 5.0109 5.03132 5.56722 4.95676 5.77943C4.85251 6.07535 5.74965 6.16555 8.79531 6.16555H12.7697L13.0837 4.92997L13.3977 3.69439H9.55603H5.71408L5.40348 4.54385ZM6.45531 10.799L6.12491 12.0345H8.52338C10.7987 12.0345 10.9311 11.9965 11.1084 11.291C11.2114 10.8821 11.3806 10.326 11.4846 10.0554C11.6476 9.63103 11.3383 9.56338 9.22965 9.56338H6.78539L6.45531 10.799ZM0.453711 16.5907C0.282634 17.0581 0.0815498 17.6141 0.00699389 17.8263C-0.0978794 18.1244 0.955184 18.2124 4.62296 18.2124H9.37474L9.56159 17.4689C9.66461 17.0599 9.83383 16.5039 9.93778 16.2333C10.1055 15.7966 9.60088 15.7413 5.44555 15.7413H0.764309L0.453711 16.5907ZM6.33156 21.8419C6.16048 22.3093 5.9594 22.8653 5.88485 23.0775C5.77935 23.3768 6.95678 23.4636 11.1195 23.4636H16.49L16.6769 22.7201C16.7799 22.3111 16.9491 21.7551 17.0531 21.4845C17.2214 21.0462 16.6636 20.9925 11.9421 20.9925H6.64216L6.33156 21.8419Z" fill="#0089EE"/>
<path fill-rule="evenodd" clip-rule="evenodd" d="M20.2998 5.90264C19.7661 7.43105 19.8571 7.57963 21.6279 8.07169L23.2956 8.53534L23.6601 7.32046C23.8605 6.65202 23.9803 6.06944 23.9258 6.02558C23.8281 5.94681 20.8424 4.92993 20.7088 4.92993C20.6704 4.92993 20.4866 5.36763 20.2998 5.90264Z" fill="#1E1E1E"/>
</svg>
