<svg width="21" height="20" viewBox="0 0 21 20" fill="none" xmlns="http://www.w3.org/2000/svg">
<path d="M17.4513 2.94544C15.7731 1.26234 13.5434 0.229714 11.1647 0.0339913C8.7861 -0.161732 6.41528 0.492346 4.48031 1.87814C2.54534 3.26393 1.17373 5.2901 0.613129 7.59085C0.052526 9.89161 0.339868 12.3153 1.42328 14.4244L0.361821 19.5349C0.350455 19.586 0.350015 19.6388 0.360528 19.69C0.371041 19.7412 0.392274 19.7897 0.422854 19.8323C0.466648 19.8967 0.529248 19.9464 0.602279 19.9746C0.67531 20.0028 0.755289 20.0083 0.831515 19.9902L5.87343 18.8033C7.99436 19.8496 10.4208 20.1155 12.721 19.5539C15.0211 18.9922 17.0456 17.6394 18.4342 15.7361C19.8228 13.8329 20.4853 11.5028 20.3038 9.1606C20.1224 6.81837 19.1087 4.61597 17.4433 2.94544H17.4513ZM15.875 15.4112C14.7144 16.5602 13.2198 17.3195 11.6014 17.5824C9.98305 17.8453 8.32228 17.5986 6.85262 16.877L6.14676 16.5296L3.04996 17.256V17.2165L3.70275 14.1191L3.35778 13.4454C2.60633 11.984 2.341 10.3241 2.59987 8.70393C2.85874 7.08371 3.62851 5.58646 4.79871 4.42701C6.26805 2.97141 8.25998 2.15378 10.3369 2.15378C12.4137 2.15378 14.4057 2.97141 15.875 4.42701L15.9095 4.47438C17.3597 5.93462 18.1693 7.90403 18.1619 9.95357C18.1544 12.0031 17.3305 13.9667 15.8697 15.4165L15.875 15.4112Z" fill="white"/>
<path d="M15.6017 13.1586C15.2222 13.7507 14.6199 14.4744 13.8689 14.656C12.5421 14.9718 10.5226 14.656 7.99373 12.3376L7.96188 12.3086C5.76202 10.2718 5.17821 8.5744 5.30824 7.22966C5.3852 6.46387 6.02738 5.7744 6.56872 5.32176C6.65479 5.2498 6.75664 5.19879 6.86614 5.17283C6.97563 5.14686 7.08973 5.14665 7.19932 5.17223C7.30891 5.1978 7.41095 5.24843 7.49728 5.32009C7.58361 5.39175 7.65184 5.48244 7.69652 5.58492L8.51119 7.41124C8.56437 7.5288 8.58432 7.65849 8.56889 7.78643C8.55347 7.91437 8.50325 8.03574 8.42362 8.13755L8.00965 8.66387C7.92361 8.77312 7.87235 8.90533 7.86242 9.0436C7.8525 9.18188 7.88435 9.31995 7.95392 9.44019C8.34714 10.0149 8.81765 10.5338 9.35239 10.9823C9.92774 11.5314 10.5802 11.995 11.2895 12.3586C11.419 12.4103 11.5611 12.4227 11.6976 12.3941C11.8342 12.3655 11.9591 12.2973 12.0565 12.1981L12.5315 11.7191C12.6218 11.6227 12.7374 11.553 12.8652 11.5177C12.9931 11.4824 13.1283 11.4829 13.2559 11.5191L15.1931 12.0691C15.3028 12.1001 15.4037 12.1563 15.4875 12.2331C15.5713 12.3099 15.6357 12.4052 15.6755 12.5113C15.7153 12.6173 15.7294 12.7312 15.7165 12.8437C15.7037 12.9561 15.6644 13.064 15.6017 13.1586Z" fill="white"/>
</svg>
